<mxfile host="app.diagrams.net" agent="Mozilla/5.0 (X11; Linux x86_64) AppleWebKit/537.36 (KHTML, like Gecko) Chrome/129.0.0.0 Safari/537.36" version="24.7.16">
  <diagram id="R2lEEEUBdFMjLlhIrx00" name="Page-1">
    <mxGraphModel dx="2331" dy="583" grid="1" gridSize="10" guides="1" tooltips="1" connect="1" arrows="1" fold="1" page="1" pageScale="1" pageWidth="1169" pageHeight="827" math="0" shadow="0" extFonts="Permanent Marker^https://fonts.googleapis.com/css?family=Permanent+Marker">
      <root>
        <mxCell id="0" />
        <mxCell id="1" parent="0" />
        <mxCell id="PpxsihZTZuUaO5u2h4L1-1" value="FrontEnd" style="rounded=1;whiteSpace=wrap;html=1;" vertex="1" parent="1">
          <mxGeometry x="-820" y="289.44" width="100" height="70" as="geometry" />
        </mxCell>
        <mxCell id="PpxsihZTZuUaO5u2h4L1-2" value="Users" style="rounded=1;whiteSpace=wrap;html=1;" vertex="1" parent="1">
          <mxGeometry x="-1130" y="220" width="100" height="60" as="geometry" />
        </mxCell>
        <mxCell id="PpxsihZTZuUaO5u2h4L1-4" value="Health Navigators" style="rounded=1;whiteSpace=wrap;html=1;" vertex="1" parent="1">
          <mxGeometry x="-1130" y="290" width="100" height="59" as="geometry" />
        </mxCell>
        <mxCell id="PpxsihZTZuUaO5u2h4L1-5" value="Health Organizations" style="rounded=1;whiteSpace=wrap;html=1;" vertex="1" parent="1">
          <mxGeometry x="-1130" y="360" width="100" height="60" as="geometry" />
        </mxCell>
        <mxCell id="PpxsihZTZuUaO5u2h4L1-11" style="edgeStyle=orthogonalEdgeStyle;rounded=0;orthogonalLoop=1;jettySize=auto;html=1;exitX=1;exitY=0.5;exitDx=0;exitDy=0;entryX=0;entryY=0.5;entryDx=0;entryDy=0;" edge="1" parent="1" source="PpxsihZTZuUaO5u2h4L1-7" target="PpxsihZTZuUaO5u2h4L1-1">
          <mxGeometry relative="1" as="geometry" />
        </mxCell>
        <mxCell id="PpxsihZTZuUaO5u2h4L1-7" value="SignUp/Login" style="rounded=1;whiteSpace=wrap;html=1;" vertex="1" parent="1">
          <mxGeometry x="-970" y="215" width="100" height="65" as="geometry" />
        </mxCell>
        <mxCell id="PpxsihZTZuUaO5u2h4L1-14" style="edgeStyle=orthogonalEdgeStyle;rounded=0;orthogonalLoop=1;jettySize=auto;html=1;exitX=1;exitY=0.5;exitDx=0;exitDy=0;entryX=0;entryY=0.5;entryDx=0;entryDy=0;" edge="1" parent="1" source="PpxsihZTZuUaO5u2h4L1-9" target="PpxsihZTZuUaO5u2h4L1-1">
          <mxGeometry relative="1" as="geometry" />
        </mxCell>
        <mxCell id="PpxsihZTZuUaO5u2h4L1-9" value="User&lt;span style=&quot;color: rgba(0, 0, 0, 0); font-family: monospace; font-size: 0px; text-align: start; text-wrap: nowrap;&quot;&gt;%3CmxGraphModel%3E%3Croot%3E%3CmxCell%20id%3D%220%22%2F%3E%3CmxCell%20id%3D%221%22%20parent%3D%220%22%2F%3E%3CmxCell%20id%3D%222%22%20value%3D%22Language%20Selection%22%20style%3D%22rounded%3D1%3BwhiteSpace%3Dwrap%3Bhtml%3D1%3B%22%20vertex%3D%221%22%20parent%3D%221%22%3E%3CmxGeometry%20x%3D%22-920%22%20y%3D%22420%22%20width%3D%22100%22%20height%3D%2265%22%20as%3D%22geometry%22%2F%3E%3C%2FmxCell%3E%3C%2Froot%3E%3C%2FmxGraphModel%3E&lt;/span&gt;&amp;nbsp;Settings" style="rounded=1;whiteSpace=wrap;html=1;" vertex="1" parent="1">
          <mxGeometry x="-970" y="291.94" width="100" height="65" as="geometry" />
        </mxCell>
        <mxCell id="PpxsihZTZuUaO5u2h4L1-15" style="edgeStyle=orthogonalEdgeStyle;rounded=0;orthogonalLoop=1;jettySize=auto;html=1;exitX=1;exitY=0.5;exitDx=0;exitDy=0;entryX=0;entryY=0.5;entryDx=0;entryDy=0;" edge="1" parent="1" source="PpxsihZTZuUaO5u2h4L1-10" target="PpxsihZTZuUaO5u2h4L1-1">
          <mxGeometry relative="1" as="geometry" />
        </mxCell>
        <mxCell id="PpxsihZTZuUaO5u2h4L1-10" value="Emergency Request" style="rounded=1;whiteSpace=wrap;html=1;" vertex="1" parent="1">
          <mxGeometry x="-970" y="369.9999999999999" width="100" height="65" as="geometry" />
        </mxCell>
        <mxCell id="PpxsihZTZuUaO5u2h4L1-25" style="edgeStyle=orthogonalEdgeStyle;rounded=0;orthogonalLoop=1;jettySize=auto;html=1;exitX=1;exitY=0.5;exitDx=0;exitDy=0;entryX=0;entryY=0.5;entryDx=0;entryDy=0;" edge="1" parent="1" source="PpxsihZTZuUaO5u2h4L1-16" target="PpxsihZTZuUaO5u2h4L1-24">
          <mxGeometry relative="1" as="geometry" />
        </mxCell>
        <mxCell id="PpxsihZTZuUaO5u2h4L1-16" value="HTTP Server (REST API)" style="rounded=1;whiteSpace=wrap;html=1;" vertex="1" parent="1">
          <mxGeometry x="-680" y="34.44" width="130" height="580" as="geometry" />
        </mxCell>
        <mxCell id="PpxsihZTZuUaO5u2h4L1-18" style="edgeStyle=orthogonalEdgeStyle;rounded=0;orthogonalLoop=1;jettySize=auto;html=1;exitX=1;exitY=0.75;exitDx=0;exitDy=0;entryX=0;entryY=0.53;entryDx=0;entryDy=0;entryPerimeter=0;" edge="1" parent="1" source="PpxsihZTZuUaO5u2h4L1-1" target="PpxsihZTZuUaO5u2h4L1-16">
          <mxGeometry relative="1" as="geometry" />
        </mxCell>
        <mxCell id="PpxsihZTZuUaO5u2h4L1-20" style="edgeStyle=orthogonalEdgeStyle;rounded=0;orthogonalLoop=1;jettySize=auto;html=1;exitX=0;exitY=0.47;exitDx=0;exitDy=0;entryX=1;entryY=0.25;entryDx=0;entryDy=0;exitPerimeter=0;" edge="1" parent="1" source="PpxsihZTZuUaO5u2h4L1-16" target="PpxsihZTZuUaO5u2h4L1-1">
          <mxGeometry relative="1" as="geometry" />
        </mxCell>
        <mxCell id="PpxsihZTZuUaO5u2h4L1-21" value="&lt;font style=&quot;font-size: 9px;&quot;&gt;Req&lt;/font&gt;" style="text;html=1;align=center;verticalAlign=middle;resizable=0;points=[];autosize=1;strokeColor=none;fillColor=none;" vertex="1" parent="1">
          <mxGeometry x="-725" y="331" width="40" height="30" as="geometry" />
        </mxCell>
        <mxCell id="PpxsihZTZuUaO5u2h4L1-22" value="&lt;font style=&quot;font-size: 9px;&quot;&gt;Res&lt;/font&gt;" style="text;html=1;align=center;verticalAlign=middle;resizable=0;points=[];autosize=1;strokeColor=none;fillColor=none;" vertex="1" parent="1">
          <mxGeometry x="-715" y="285" width="40" height="30" as="geometry" />
        </mxCell>
        <mxCell id="PpxsihZTZuUaO5u2h4L1-31" style="edgeStyle=orthogonalEdgeStyle;rounded=0;orthogonalLoop=1;jettySize=auto;html=1;exitX=1;exitY=0.5;exitDx=0;exitDy=0;entryX=0;entryY=0.5;entryDx=0;entryDy=0;" edge="1" parent="1" source="PpxsihZTZuUaO5u2h4L1-23" target="PpxsihZTZuUaO5u2h4L1-29">
          <mxGeometry relative="1" as="geometry" />
        </mxCell>
        <mxCell id="PpxsihZTZuUaO5u2h4L1-23" value="User Manager" style="rounded=1;whiteSpace=wrap;html=1;" vertex="1" parent="1">
          <mxGeometry x="-470" y="291.94" width="120" height="60" as="geometry" />
        </mxCell>
        <mxCell id="PpxsihZTZuUaO5u2h4L1-28" style="edgeStyle=orthogonalEdgeStyle;rounded=0;orthogonalLoop=1;jettySize=auto;html=1;exitX=1;exitY=0.5;exitDx=0;exitDy=0;entryX=0;entryY=0.5;entryDx=0;entryDy=0;" edge="1" parent="1" source="PpxsihZTZuUaO5u2h4L1-24" target="PpxsihZTZuUaO5u2h4L1-26">
          <mxGeometry relative="1" as="geometry" />
        </mxCell>
        <mxCell id="PpxsihZTZuUaO5u2h4L1-36" style="edgeStyle=orthogonalEdgeStyle;rounded=0;orthogonalLoop=1;jettySize=auto;html=1;exitX=0.5;exitY=1;exitDx=0;exitDy=0;entryX=0.5;entryY=0;entryDx=0;entryDy=0;" edge="1" parent="1" source="PpxsihZTZuUaO5u2h4L1-24" target="PpxsihZTZuUaO5u2h4L1-23">
          <mxGeometry relative="1" as="geometry">
            <mxPoint x="-410" y="210" as="targetPoint" />
          </mxGeometry>
        </mxCell>
        <mxCell id="PpxsihZTZuUaO5u2h4L1-24" value="Request System" style="rounded=1;whiteSpace=wrap;html=1;" vertex="1" parent="1">
          <mxGeometry x="-470" y="120" width="120" height="60" as="geometry" />
        </mxCell>
        <mxCell id="PpxsihZTZuUaO5u2h4L1-26" value="Native Calling Service" style="rounded=1;whiteSpace=wrap;html=1;" vertex="1" parent="1">
          <mxGeometry x="-260" y="120" width="120" height="60" as="geometry" />
        </mxCell>
        <mxCell id="PpxsihZTZuUaO5u2h4L1-38" style="edgeStyle=orthogonalEdgeStyle;rounded=0;orthogonalLoop=1;jettySize=auto;html=1;exitX=1;exitY=0.5;exitDx=0;exitDy=0;" edge="1" parent="1" source="PpxsihZTZuUaO5u2h4L1-29">
          <mxGeometry relative="1" as="geometry">
            <mxPoint x="-60" y="322" as="targetPoint" />
          </mxGeometry>
        </mxCell>
        <mxCell id="PpxsihZTZuUaO5u2h4L1-29" value="Database Manager" style="rounded=1;whiteSpace=wrap;html=1;" vertex="1" parent="1">
          <mxGeometry x="-260" y="291.94" width="120" height="60" as="geometry" />
        </mxCell>
        <mxCell id="PpxsihZTZuUaO5u2h4L1-32" style="edgeStyle=orthogonalEdgeStyle;rounded=0;orthogonalLoop=1;jettySize=auto;html=1;exitX=1;exitY=0.5;exitDx=0;exitDy=0;entryX=0;entryY=0.557;entryDx=0;entryDy=0;entryPerimeter=0;" edge="1" parent="1">
          <mxGeometry relative="1" as="geometry">
            <mxPoint x="-550" y="323.97999999999996" as="sourcePoint" />
            <mxPoint x="-470" y="324.90000000000003" as="targetPoint" />
          </mxGeometry>
        </mxCell>
        <mxCell id="PpxsihZTZuUaO5u2h4L1-37" style="edgeStyle=orthogonalEdgeStyle;rounded=0;orthogonalLoop=1;jettySize=auto;html=1;exitX=0.5;exitY=1;exitDx=0;exitDy=0;entryX=0.5;entryY=0;entryDx=0;entryDy=0;" edge="1" parent="1" target="PpxsihZTZuUaO5u2h4L1-23">
          <mxGeometry relative="1" as="geometry">
            <mxPoint x="-410" y="270" as="sourcePoint" />
          </mxGeometry>
        </mxCell>
        <mxCell id="PpxsihZTZuUaO5u2h4L1-39" value="MongoDB" style="rounded=1;whiteSpace=wrap;html=1;" vertex="1" parent="1">
          <mxGeometry x="-60" y="294.44" width="120" height="60" as="geometry" />
        </mxCell>
        <mxCell id="PpxsihZTZuUaO5u2h4L1-40" value="&lt;font style=&quot;font-size: 8px;&quot;&gt;User Creation/&lt;/font&gt;&lt;div&gt;&lt;font style=&quot;font-size: 8px;&quot;&gt;Information update&lt;/font&gt;&lt;/div&gt;" style="text;html=1;align=center;verticalAlign=middle;resizable=0;points=[];autosize=1;strokeColor=none;fillColor=none;" vertex="1" parent="1">
          <mxGeometry x="-350" y="285" width="90" height="40" as="geometry" />
        </mxCell>
      </root>
    </mxGraphModel>
  </diagram>
</mxfile>
